<?xml version="1.0" encoding="UTF-8" standalone="no"?>
<!-- Created with Inkscape (http://www.inkscape.org/) -->

<svg
   xmlns:dc="http://purl.org/dc/elements/1.1/"
   xmlns:cc="http://creativecommons.org/ns#"
   xmlns:rdf="http://www.w3.org/1999/02/22-rdf-syntax-ns#"
   xmlns:svg="http://www.w3.org/2000/svg"
   xmlns="http://www.w3.org/2000/svg"
   xmlns:sodipodi="http://sodipodi.sourceforge.net/DTD/sodipodi-0.dtd"
   xmlns:inkscape="http://www.inkscape.org/namespaces/inkscape"
   id="svg15805"
   version="1.1"
   inkscape:version="0.48.2 r9819"
   width="48"
   height="48"
   sodipodi:docname="mapping_tools.svg"
   inkscape:export-filename="D:\qgis_mapping_tools\resources\img\mapping_tools.png"
   inkscape:export-xdpi="69.375"
   inkscape:export-ydpi="69.375">
  <metadata
     id="metadata15811">
    <rdf:RDF>
      <cc:Work
         rdf:about="">
        <dc:format>image/svg+xml</dc:format>
        <dc:type
           rdf:resource="http://purl.org/dc/dcmitype/StillImage" />
        <dc:title></dc:title>
      </cc:Work>
    </rdf:RDF>
  </metadata>
  <defs
     id="defs15809">
    <marker
       style="overflow:visible;"
       id="Arrow2Lend"
       refX="0.0"
       refY="0.0"
       orient="auto"
       inkscape:stockid="Arrow2Lend">
      <path
         transform="scale(1.1) rotate(180) translate(1,0)"
         d="M 8.7185878,4.0337352 L -2.2072895,0.016013256 L 8.7185884,-4.0017078 C 6.9730900,-1.6296469 6.9831476,1.6157441 8.7185878,4.0337352 z "
         style="font-size:12.0;fill-rule:evenodd;stroke-width:0.62500000;stroke-linejoin:round;"
         id="path17866" />
    </marker>
    <marker
       style="overflow:visible;"
       id="Arrow2Mend"
       refX="0.0"
       refY="0.0"
       orient="auto"
       inkscape:stockid="Arrow2Mend">
      <path
         transform="scale(0.6) rotate(180) translate(0,0)"
         d="M 8.7185878,4.0337352 L -2.2072895,0.016013256 L 8.7185884,-4.0017078 C 6.9730900,-1.6296469 6.9831476,1.6157441 8.7185878,4.0337352 z "
         style="font-size:12.0;fill-rule:evenodd;stroke-width:0.62500000;stroke-linejoin:round;"
         id="path17872" />
    </marker>
  </defs>
  <sodipodi:namedview
     pagecolor="#ffffff"
     bordercolor="#666666"
     borderopacity="1"
     objecttolerance="10"
     gridtolerance="10"
     guidetolerance="10"
     inkscape:pageopacity="0"
     inkscape:pageshadow="2"
     inkscape:window-width="884"
     inkscape:window-height="689"
     id="namedview15807"
     showgrid="false"
     inkscape:zoom="2.8284271"
     inkscape:cx="18.482609"
     inkscape:cy="2.4850179"
     inkscape:window-x="2060"
     inkscape:window-y="145"
     inkscape:window-maximized="0"
     inkscape:current-layer="svg15805" />
  <rect
     style="fill:#ffffff;fill-opacity:1;stroke:#000000;stroke-opacity:1"
     id="rect3969"
     width="49.602711"
     height="49.07238"
     x="0"
     y="-0.00390625" />
  <path
     style="fill:#1f730b;fill-opacity:0.54117647;stroke:#000000;stroke-width:1.93277252;stroke-linecap:butt;stroke-linejoin:miter;stroke-miterlimit:4;stroke-opacity:1;stroke-dasharray:none"
     d="m -141.41638,86.128992 c 0,0 0,-14.665074 17.39753,-11.406589 17.39753,3.259246 23.19671,6.518479 17.39753,16.295449 -5.79917,9.777718 -13.04814,4.88811 -21.7469,13.036958 -8.69877,8.14735 -14.49796,3.25849 -18.84733,-6.518488 -4.34938,-9.7777 5.79917,-11.40733 5.79917,-11.40733 z"
     id="path3791"
     inkscape:connector-curvature="0" />
  <path
     style="fill:#ffff00;fill-opacity:0.54117647;stroke:none"
     d=""
     id="path3087"
     inkscape:connector-curvature="0" />
  <path
     style="fill:#ffffff;fill-opacity:1;stroke:#000000;stroke-width:0.81751895px;stroke-linecap:butt;stroke-linejoin:miter;stroke-opacity:1"
     d="m -127.00326,110.70247 -2.8706,-20.215588 14.97896,13.384068 -5.76593,1.56088 5.0863,7.66273 -2.99911,1.90678 -4.30747,-7.78642 z"
     id="path15819"
     inkscape:connector-curvature="0" />
  <path
     d="m -130.91931,89.026312 -0.0118,-2.54488 -2.17072,0.42511 1.39858,-1.95844 -1.89801,-1.2959 2.15459,-0.45536 -0.73706,-2.41058 1.90236,1.26054 0.76861,-2.397065 0.76012,2.386655 1.91462,-1.26209 -0.7378,2.39605 2.16484,0.4633 -1.89043,1.2844 1.40203,1.97208 -2.15865,-0.42841 -0.0169,2.558 -1.41656,-1.94063 -1.42788,1.94722 0,0 z m 0.47677,-3.22014 0.008,1.67827 0.94398,-1.28743 0.93415,1.2797 0.0111,-1.69136 1.42333,0.28253 -0.92694,-1.3039 1.24657,-0.84695 -1.43131,-0.30639 0.4866,-1.58004 -1.266,0.83449 -0.50119,-1.57374 -0.50825,1.58489 -1.2544,-0.83119 0.48732,1.59383 -1.4207,0.30022 1.25487,0.85674 -0.92226,1.29138 1.43527,-0.28105 0,0 0,0 z"
     id="path22"
     inkscape:connector-curvature="0"
     style="fill:#000000" />
  <path
     style="fill:#ffff00;fill-opacity:1;stroke:none"
     d="m -130.41737,86.601352 0,-0.82601 -0.0742,0.0196 c -0.18997,0.0502 -1.28712,0.25117 -1.29859,0.23784 -0.007,-0.008 0.18073,-0.28754 0.41744,-0.62058 0.24154,-0.33982 0.41791,-0.62004 0.40194,-0.6386 -0.0156,-0.0182 -0.29418,-0.2136 -0.61895,-0.43425 -0.32477,-0.22065 -0.57612,-0.40118 -0.55856,-0.40118 0.0969,0 1.36833,-0.28563 1.36833,-0.30739 0,-0.0143 -0.10304,-0.3598 -0.229,-0.76781 -0.12596,-0.40802 -0.22603,-0.7453 -0.2224,-0.74952 0.004,-0.004 0.27353,0.16974 0.59979,0.38659 0.32625,0.21684 0.60323,0.3835 0.6155,0.37035 0.0122,-0.0132 0.1292,-0.35627 0.25985,-0.7625 0.13065,-0.40623 0.24222,-0.73317 0.24794,-0.72652 0.006,0.007 0.11335,0.33839 0.23919,0.73721 0.12584,0.39883 0.24285,0.73059 0.26002,0.73724 0.0172,0.007 0.29401,-0.16268 0.61518,-0.3763 0.32117,-0.21363 0.58834,-0.3822 0.59372,-0.37461 0.005,0.008 -0.0935,0.34663 -0.21964,0.75343 -0.12617,0.40679 -0.22267,0.74745 -0.21445,0.75701 0.008,0.01 0.31387,0.081 0.6792,0.15882 0.36533,0.0778 0.66401,0.15081 0.66374,0.16229 -2.7e-4,0.0114 -0.255,0.19324 -0.56606,0.40391 -0.31106,0.21068 -0.57058,0.40096 -0.57671,0.42285 -0.006,0.0219 0.18294,0.31222 0.42016,0.64518 0.23722,0.33296 0.42651,0.60998 0.42065,0.61561 -0.006,0.006 -0.29245,-0.0468 -0.63687,-0.11653 -0.34442,-0.0697 -0.65187,-0.12765 -0.68324,-0.12872 -0.052,-0.002 -0.0578,0.0688 -0.0659,0.80891 l -0.009,0.81087 -0.43919,-0.60019 c -0.24156,-0.33011 -0.45027,-0.6002 -0.46381,-0.6002 -0.0135,0 -0.22748,0.27658 -0.47542,0.61461 l -0.45079,0.61461 0,-0.82601 z"
     id="path3961"
     inkscape:connector-curvature="0" />
  <path
     style="fill:none;stroke:#000000;stroke-width:1px;stroke-linecap:butt;stroke-linejoin:miter;stroke-opacity:1"
     d="m -2.8926553,24.858758 c 0,0 9.4011299,-8.677967 26.7570613,-5.062147 17.355933,3.615819 11.570622,11.570621 27.480226,9.40113"
     id="path3963"
     inkscape:connector-curvature="0" />
  <path
     style="fill:none;stroke:#000000;stroke-width:1px;stroke-linecap:butt;stroke-linejoin:miter;stroke-opacity:1"
     d="m 22.418079,-9.1299435 c 0,0 7.231638,5.7853108 2.169492,21.6949155 -5.062147,15.909604 -2.169492,22.418079 0,28.20339 2.169491,5.78531 -4.338983,18.802259 -4.338983,18.802259"
     id="path3965"
     inkscape:connector-curvature="0" />
  <path
     style="fill:#1f730b;fill-opacity:0.54117647;stroke:#000000;stroke-width:0.33552217;stroke-linecap:butt;stroke-linejoin:bevel;stroke-miterlimit:4;stroke-opacity:1;stroke-dasharray:none;stroke-dashoffset:0"
     d="m 25.15865,47.866112 c 0.135471,-0.340295 0.32456,-1.811961 0.420198,-3.270369 0.155704,-2.374356 0.04344,-3.0255 -1.073496,-6.226629 -1.71705,-4.921035 -2.136697,-7.65544 -1.86361,-12.143239 0.124743,-2.04997 0.326489,-4.175252 0.448325,-4.722849 0.210908,-0.947934 0.291316,-0.984067 1.678441,-0.754261 4.010179,0.664371 8.307809,2.827581 13.300959,6.695033 2.406769,1.864167 4.835587,2.656256 8.14499,2.656256 l 2.815165,0 0,9.192388 0,9.192389 -12.058642,0 c -11.342551,0 -12.044014,-0.03674 -11.81233,-0.618719 z"
     id="path4061"
     inkscape:connector-curvature="0" />
  <path
     style="fill:#1f730b;fill-opacity:0.54117647;stroke:#000000;stroke-width:0.33552217;stroke-linecap:butt;stroke-linejoin:bevel;stroke-miterlimit:4;stroke-opacity:1;stroke-dasharray:none;stroke-dashoffset:0"
     d="m 44.242981,28.701675 c -2.068759,-0.318137 -3.662505,-1.065792 -5.643184,-2.64732 -4.053551,-3.236668 -7.405634,-4.998145 -11.844039,-6.223891 -1.652862,-0.456468 -3.052521,-0.859158 -3.110354,-0.894867 -0.05783,-0.03571 0.531992,-2.351059 1.310723,-5.145224 1.53601,-5.5113567 2.146344,-8.7342528 2.150514,-11.3558714 l 0.0027,-1.67937856 10.960156,0 10.960155,0 0,13.96535896 c 0,11.613693 -0.08186,13.965359 -0.486136,13.965359 -0.267375,0 -0.943546,0.0652 -1.502602,0.144893 -0.559056,0.07969 -1.818113,0.02162 -2.797903,-0.129059 z"
     id="path4063"
     inkscape:connector-curvature="0" />
  <path
     style="fill:#1f730b;fill-opacity:0.54117647;stroke:#000000;stroke-width:0.33552217;stroke-linecap:butt;stroke-linejoin:bevel;stroke-miterlimit:4;stroke-opacity:1;stroke-dasharray:none;stroke-dashoffset:0"
     d="m 0.5928073,35.939641 0,-12.545189 1.6793786,-0.849687 c 3.9843088,-2.015874 10.9410331,-3.270998 15.8592701,-2.861312 1.579218,0.131549 3.047068,0.347806 3.261889,0.480573 0.28466,0.175929 0.27917,1.356179 -0.02024,4.352011 -0.514395,5.146879 -0.103828,8.607745 1.649256,13.902346 1.316927,3.977336 1.5556,6.330888 0.886383,8.740622 l -0.368199,1.325826 -11.473867,0 -11.4738667,0 0,-12.54519 z"
     id="path4065"
     inkscape:connector-curvature="0" />
  <path
     style="fill:#ffff00;fill-opacity:0.54117647000000002;stroke:#ffffff;stroke-width:0.33552217000000001;stroke-linecap:butt;stroke-linejoin:bevel;stroke-miterlimit:4;stroke-opacity:1;stroke-dasharray:none;stroke-dashoffset:0"
     d="m 0.5928073,11.184948 0,-10.42982496 12.5511457,0 12.551145,0 -0.0027,1.67937856 c -0.0048,3.0229335 -1.108666,8.1341284 -3.404335,15.7630874 -0.145195,0.482514 -0.412262,0.5942 -1.042578,0.436001 -1.489971,-0.373963 -9.081764,-0.278945 -11.4603026,0.143436 -2.7384502,0.486295 -6.2857946,1.535677 -7.74898,2.29232 -0.5801069,0.299985 -1.1421902,0.545427 -1.24907398,0.545427 -0.10688375,0 -0.19433412,-4.693421 -0.19433412,-10.429825 z"
     id="path4067"
     inkscape:connector-curvature="0" />
  <path
     style="fill:#ffff00;fill-opacity:0.54117647;stroke:#ffffff;stroke-width:0.33552217;stroke-linecap:butt;stroke-linejoin:bevel;stroke-miterlimit:4;stroke-opacity:1;stroke-dasharray:none;stroke-dashoffset:0"
     d="m 0.94636069,11.172384 0,-10.0637076 12.19759231,0 12.197592,0 0,1.6238412 c 0,1.9785935 -1.058785,7.2440836 -2.397809,11.9246564 l -0.993339,3.472225 -5.994213,0.08106 c -6.2628,0.08469 -9.4389158,0.637662 -13.3897724,2.331197 l -1.62005091,0.694435 0,-10.063707 z"
     id="path4069"
     inkscape:connector-curvature="0" />
  <path
     style="fill:#ffff00;fill-opacity:0.54117647;stroke:#ffffff;stroke-width:0.33552217;stroke-linecap:butt;stroke-linejoin:bevel;stroke-miterlimit:4;stroke-opacity:1;stroke-dasharray:none;stroke-dashoffset:0"
     d="m 1.2999141,11.008171 0,-9.5459412 11.8948089,0 11.894808,0 -0.222379,2.3864854 C 24.688497,5.7659698 23.087604,12.949306 21.962465,16.882279 21.760034,17.58989 21.442939,17.643131 16.032062,17.878016 10.0268,18.138703 6.2467543,18.73329 3.3593976,19.87138 c -0.9526591,0.375503 -1.8057671,0.682733 -1.8957955,0.682733 -0.090028,0 -0.163688,-4.295674 -0.163688,-9.545942 z"
     id="path4071"
     inkscape:connector-curvature="0" />
  <path
     style="fill:#ffffff;fill-opacity:1;stroke:#000000;stroke-width:0.81751895px;stroke-linecap:butt;stroke-linejoin:miter;stroke-opacity:1"
     d="M 7.059185,37.00756 4.18858,16.791962 19.167539,30.176038 13.401611,31.73691 18.487914,39.39964 15.488799,41.30643 11.181329,33.52 z"
     id="path15819-7"
     inkscape:connector-curvature="0" />
</svg>
